#!OML:ASF H:\MichaelJackson\Top Level 1\Subject 1\Session 1\male.ASF
:FULLY-SPECIFIED
:DEGREES
917
root 2.75215 16.2419 32.4438 2.31443 10.8163 362.151
lowerback -0.589658 0.326381 -2.82775
upperback -0.814328 0.436058 -4.67497
thorax -0.49008 0.224034 -3.21968
lowerneck -7.22092 -5.44794 -1.48686
upperneck 4.36652 -7.52577 6.02723
head 2.99998 -3.55845 1.85067
rclavicle 1.05325e-014 0
rhumerus -61.2174 33.3237 -106.591
rradius 117.947
rwrist 5.56611
rhand -1.15787 -10.8746
rfingers 7.12502
rthumb 24.4809 -759.33
lclavicle 1.05325e-014 0
lhumerus -51.1003 -35.4641 107.871
lradius 59.107
lwrist 12.9005
lhand 38.3339 20.5121
lfingers 7.12502
lthumb 61.0003 33.1977
rfemur -16.4471 -1.26615 -8.21814
rtibia 37.6733
rfoot 12.2225 -13.1269
rtoes -26.4831
lfemur -13.673 -2.83078 2.12424
ltibia 27.4521
lfoot 2.61619 -47.7364
ltoes 21.0698
918
root 2.6693 16.1999 32.4883 2.71119 10.0685 362.356
lowerback -1.06021 0.238764 -2.8244
upperback -0.926272 0.340902 -4.96828
thorax -0.342851 0.175228 -3.52479
lowerneck -7.20318 -5.10291 -1.31193
upperneck 4.24975 -7.07818 6.09653
head 2.93345 -3.3335 1.86854
rclavicle -1.1208e-014 0
rhumerus -62.2032 34.529 -104.699
rradius 118.296
rwrist 5.66647
rhand 1.94218 -10.0741
rfingers 7.12502
rthumb 27.4493 -758.094
lclavicle -1.1208e-014 0
lhumerus -51.3079 -35.6989 107.644
lradius 59.1404
lwrist 13.5778
lhand 39.3467 22.0271
lfingers 7.12502
lthumb 61.8515 33.7047
rfemur -16.7793 -0.726183 -8.5435
rtibia 37.4309
rfoot 11.2351 -12.0362
rtoes -32.5507
lfemur -12.1913 -4.74532 2.98986
ltibia 24.1545
lfoot 6.3176 -49.2971
ltoes 25.5092
919
root 2.58744 16.1548 32.531 3.08405 9.31345 362.605
lowerback -1.51237 0.125115 -2.81302
upperback -1.02423 0.21144 -5.27889
thorax -0.194212 0.109131 -3.85516
lowerneck -7.16119 -4.73079 -1.1238
upperneck 4.11648 -6.59315 6.15003
head 2.85453 -3.09116 1.8805
rclavicle 9.85459e-015 -1.90833e-014
rhumerus -62.9049 35.9155 -102.26
rradius 118.582
rwrist 5.13064
rhand 5.34678 -9.49053
rfingers 7.12502
rthumb 30.7007 -756.949
lclavicle 9.85459e-015 -1.90833e-014
lhumerus -51.5615 -36.011 107.442
lradius 59.1177
lwrist 14.2935
lhand 40.2037 23.5058
lfingers 7.12502
lthumb 62.5638 34.2796
rfemur -17.1709 -0.429495 -8.8893
rtibia 37.3945
rfoot 9.97349 -11.1622
rtoes -37.1043
lfemur -10.6612 -6.25866 3.61003
ltibia 20.9876
lfoot 8.79063 -50.0527
ltoes 28.4432
920
root 2.507 16.1083 32.5718 3.41805 8.53489 362.894
lowerback -1.93002 -0.00115601 -2.79344
upperback -1.10895 0.0643541 -5.60205
thorax -0.0538712 0.0341088 -4.20644
lowerneck -7.10474 -4.33809 -0.926402
upperneck 3.98992 -6.08006 6.18297
head 2.77366 -2.83564 1.88459
rclavicle -1.62413e-014 -6.83819e-014
rhumerus -63.2302 37.4886 -99.2386
rradius 118.735
rwrist 4.01754
rhand 8.89771 -9.19665
rfingers 7.12502
rthumb 34.0801 -755.963
lclavicle -1.62413e-014 -6.83819e-014
lhumerus -51.8466 -36.3795 107.257
lradius 59.0261
lwrist 14.9875
lhand 40.9493 24.8244
lfingers 7.12502
lthumb 63.1773 34.771
rfemur -17.6107 -0.359613 -9.24904
rtibia 37.5056
rfoot 8.52444 -10.4685
rtoes -40.411
lfemur -9.08453 -7.32883 3.97931
ltibia 18.0233
lfoot 9.63572 -50.2685
ltoes 29.7613
921
root 2.42827 16.0616 32.6105 3.7045 7.7134 363.22
lowerback -2.30131 -0.126596 -2.76749
upperback -1.18292 -0.0835431 -5.93284
thorax 0.069477 -0.0414286 -4.5723
lowerneck -7.04726 -3.93043 -0.721044
upperneck 3.89116 -5.54732 6.18997
head 2.70098 -2.57058 1.87845
rclavicle -1.13773e-014 -5.88403e-014
rhumerus -63.0769 39.2359 -95.6023
rradius 118.673
rwrist 2.43425
rhand 12.4185 -9.19645
rfingers 7.12502
rthumb 37.4164 -755.152
lclavicle -1.13773e-014 -5.88403e-014
lhumerus -52.151 -36.7803 107.08
lradius 58.8625
lwrist 15.6252
lhand 41.6418 25.8884
lfingers 7.12502
lthumb 63.7414 35.0306
rfemur -18.1091 -0.493377 -9.61579
rtibia 37.7384
rfoot 6.95394 -9.89457
rtoes -42.7461
lfemur -7.46817 -7.96245 4.10836
ltibia 15.3162
lfoot 8.74028 -50.1153
ltoes 29.4725
922
root 2.35151 16.0154 32.6465 3.94094 6.83264 363.577
lowerback -2.6188 -0.240489 -2.73888
upperback -1.24894 -0.218849 -6.26603
thorax 0.169585 -0.110804 -4.94457
lowerneck -7.00359 -3.51233 -0.506392
upperneck 3.83442 -5.00188 6.16519
head 2.64435 -2.29895 1.85946
rclavicle 1.34366e-014 3.02153e-014
rhumerus -62.3412 41.126 -91.3238
rradius 118.311
rwrist 0.522597
rhand 15.7227 -9.42987
rfingers 7.12502
rthumb 40.5315 -754.493
lclavicle 1.34366e-014 3.02153e-014
lhumerus -52.4675 -37.192 106.906
lradius 58.6353
lwrist 16.2087
lhand 42.3237 26.6538
lfingers 7.12502
lthumb 64.2911 34.9683
rfemur -18.6897 -0.804531 -9.98285
rtibia 38.0925
rfoot 5.30943 -9.37471
rtoes -44.35
lfemur -5.82806 -8.22044 4.02291
ltibia 12.902
lfoot 6.19064 -49.6212
ltoes 27.6011
923
root 2.27694 15.9698 32.6795 4.13036 5.88593 363.959
lowerback -2.87941 -0.336544 -2.71173
upperback -1.3092 -0.333731 -6.59598
thorax 0.24331 -0.170144 -5.31426
lowerneck -6.98529 -3.08757 -0.278641
upperneck 3.82247 -4.44933 6.10343
head 2.60709 -2.02329 1.82513
rclavicle 1.0635e-014 -3.81667e-014
rhumerus -60.9307 43.1043 -86.3895
rradius 117.569
rwrist -1.5595
rhand 18.6379 -9.79486
rfingers 7.12502
rthumb 43.2641 -753.947
lclavicle 1.0635e-014 -3.81667e-014
lhumerus -52.7965 -37.6032 106.736
lradius 58.3638
lwrist 16.7783
lhand 42.996 27.132
lfingers 7.12502
lthumb 64.8273 34.5937
rfemur -19.3775 -1.26406 -10.3427
rtibia 38.5801
rfoot 3.62814 -8.85264
rtoes -45.406
lfemur -4.19058 -8.21305 3.76002
ltibia 10.799
lfoot 2.24329 -48.6794
ltoes 24.1747
924
root 2.20477 15.9246 32.7088 4.27899 4.88082 364.357
lowerback -3.08373 -0.413803 -2.68796
upperback -1.3638 -0.427107 -6.91581
thorax 0.291495 -0.218942 -5.67241
lowerneck -6.99752 -2.66007 -0.0336489
upperneck 3.844 -3.89483 6.00177
head 2.58681 -1.74633 1.77387
rclavicle -1.95057e-015 -8.5875e-014
rhumerus -58.7745 45.0914 -80.8015
rradius 116.384
rwrist -3.66057
rhand 21.0303 -10.1801
rfingers 7.12502
rthumb 45.4936 -753.483
lclavicle -1.95057e-015 -8.5875e-014
lhumerus -53.1449 -38.0135 106.584
lradius 58.0758
lwrist 17.4015
lhand 43.6182 27.3877
lfingers 7.12502
lthumb 65.318 34.0261
rfemur -20.1864 -1.83881 -10.6851
rtibia 39.2105
rfoot 1.94195 -8.29354
rtoes -46.0534
lfemur -2.58535 -7.27113 3.32544
ltibia 9.00994
lfoot -2.17708 -47.8359
ltoes 19.2711
925
root 2.13513 15.8796 32.7337 4.39544 3.84042 364.759
lowerback -3.23548 -0.47587 -2.6665
upperback -1.41089 -0.503662 -7.21775
thorax 0.318308 -0.259537 -6.011
lowerneck -7.03814 -2.23507 0.230682
upperneck 3.87724 -3.34467 5.86185
head 2.57656 -1.47165 1.70594
rclavicle -1.85118e-015 0
rhumerus -55.8381 46.9807 -74.5842
rradius 114.708
rwrist -5.65682
rhand 22.8247 -10.4969
rfingers 7.12502
rthumb 47.1569 -753.094
lclavicle -1.85118e-015 0
lhumerus -53.5254 -38.4352 106.474
lradius 57.8015
lwrist 18.1533
lhand 44.117 27.5203
lfingers 7.12502
lthumb 65.7072 33.474
rfemur -21.1112 -2.49084 -10.9972
rtibia 39.9781
rfoot 0.283837 -7.68699
rtoes -46.4005
lfemur -1.06315 -6.31122 2.8412
ltibia 7.52681
lfoot -7.2256 -46.3024
ltoes 13.1266
926
root 2.06806 15.8348 32.7539 4.48945 2.80108 365.145
lowerback -3.34118 -0.529742 -2.64132
upperback -1.44674 -0.572336 -7.49244
thorax 0.330916 -0.296343 -6.32338
lowerneck -7.09892 -1.81902 0.514697
upperneck 3.8945 -2.80636 5.68865
head 2.56642 -1.20363 1.62284
rclavicle 2.03754e-015 -1.59028e-015
rhumerus -52.1371 48.6422 -67.7953
rradius 112.514
rwrist -7.47041
rhand 24.009 -10.7072
rfingers 7.12502
rthumb 48.2498 -752.803
lclavicle 2.03754e-015 -1.59028e-015
lhumerus -53.9498 -38.886 106.433
lradius 57.568
lwrist 19.0905
lhand 44.4137 27.6381
lfingers 7.12502
lthumb 65.937 33.1735
rfemur -22.1256 -3.18028 -11.2625
rtibia 40.8579
rfoot -1.31363 -7.04429
rtoes -46.5293
lfemur 0.336944 -5.35549 2.34651
ltibia 6.33439
lfoot -12.2853 -44.1004
ltoes 6.20155
927
root 2.00353 15.7904 32.7694 4.57176 1.80592 365.494
lowerback -3.40956 -0.583111 -2.60256
upperback -1.4675 -0.642824 -7.73054
thorax 0.337557 -0.334099 -6.60518
lowerneck -7.16715 -1.41983 0.814247
upperneck 3.86955 -2.28934 5.49315
head 2.54622 -0.947533 1.5286
rclavicle -7.34882e-015 6.36111e-015
rhumerus -47.7563 49.9306 -60.5468
rradius 109.787
rwrist -9.07453
rhand 24.6224 -10.8268
rfingers 7.12502
rthumb 48.8143 -752.651
lclavicle -7.34882e-015 6.36111e-015
lhumerus -54.4266 -39.3827 106.488
lradius 57.3933
lwrist 20.2301
lhand 44.4488 27.8248
lfingers 7.12502
lthumb 65.9641 33.3103
rfemur -23.1862 -3.86991 -11.4637
rtibia 41.8066
rfoot -2.82481 -6.39101
rtoes -46.5028
lfemur 1.57791 -4.43732 1.88275
ltibia 5.41368
lfoot -16.8737 -41.3483
ltoes -0.857751
928
root 1.94141 15.747 32.7803 4.65365 0.89706 365.783
lowerback -3.45148 -0.6427 -2.53822
upperback -1.4703 -0.723407 -7.92294
thorax 0.346562 -0.376802 -6.85351
lowerneck -7.23054 -1.04548 1.12329
upperneck 3.78475 -1.8034 5.28776
head 2.50854 -0.708568 1.4279
rclavicle 1.04362e-015 6.99722e-014
rhumerus -42.8611 50.7028 -53.0238
rradius 106.516
rwrist -10.4891
rhand 24.7297 -10.9142
rfingers 7.12502
rthumb 48.9129 -752.69
lclavicle 1.04362e-015 6.99722e-014
lhumerus -54.9538 -39.9318 106.657
lradius 57.2812
lwrist 21.5352
lhand 44.2084 28.1126
lfingers 7.12502
lthumb 65.7782 33.9383
rfemur -24.2416 -4.5299 -11.5842
rtibia 42.7713
rfoot -4.23454 -5.75767
rtoes -46.3689
lfemur 2.62858 -3.59007 1.48747
ltibia 4.74572
lfoot -20.7188 -38.2384
ltoes -7.41042
929
root 1.8815 15.7053 32.7872 4.74586 0.107493 365.992
lowerback -3.47786 -0.712081 -2.43705
upperback -1.45522 -0.818287 -8.0628
thorax 0.363486 -0.426413 -7.06739
lowerneck -7.27803 -0.703327 1.43451
upperneck 3.63478 -1.35801 5.08564
head 2.44999 -0.491469 1.32583
rclavicle -2.55314e-015 8.11041e-014
rhumerus -37.6956 50.8388 -45.4906
rradius 102.681
rwrist -11.7637
rhand 24.3795 -11.0522
rfingers 7.12502
rthumb 48.5909 -752.984
lclavicle -2.55314e-015 8.11041e-014
lhumerus -55.5196 -40.5249 106.943
lradius 57.2208
lwrist 22.9164
lhand 43.7329 28.4702
lfingers 7.12502
lthumb 65.4078 34.9531
rfemur -25.2423 -5.14073 -11.6115
rtibia 43.6983
rfoot -5.53967 -5.17222
rtoes -46.1648
lfemur 3.46697 -2.84045 1.18787
ltibia 4.31344
lfoot -23.7454 -34.9842
ltoes -13.0183
930
root 1.82365 15.6661 32.791 4.85697 -0.544649 366.106
lowerback -3.49796 -0.79124 -2.29181
upperback -1.42569 -0.927162 -8.14639
thorax 0.389907 -0.482674 -7.24672
lowerneck -7.30214 -0.398782 1.74041
upperneck 3.42799 -0.960439 4.89793
head 2.37208 -0.299567 1.227
rclavicle -1.37161e-014 3.97569e-014
rhumerus -32.5416 50.2594 -38.257
rradius 98.2605
rwrist -12.956
rhand 23.5732 -11.3322
rfingers 7.12502
rthumb 47.848 -753.616
lclavicle -1.37161e-014 3.97569e-014
lhumerus -56.1023 -41.137 107.332
lradius 57.1887
lwrist 24.2495
lhand 43.1133 28.8143
lfingers 7.12502
lthumb 64.9202 36.1234
rfemur -26.1495 -5.69374 -11.5399
rtibia 44.5425
rfoot -6.74742 -4.65442
rtoes -45.9214
lfemur 4.08291 -2.20299 0.997026
ltibia 4.10083
lfoot -26.011 -31.7739
ltoes -17.5202
